  0
SECTION
  2
HEADER
  9
$ACADVER
  1
AC1015
  9
$HANDSEED
  5
FFFF
  9
$DWGCODEPAGE
  3
ANSI_1252
  9
$INSUNITS
 70
6
  9
$DIMEXE
 40
1.25
  9
$TEXTSTYLE
  7
Standard
  9
$EXTMIN
 10
5781.0180613411412196
 20
-52104.892581668755156
  9
$EXTMAX
 10
5790.2622703928336705
 20
-52092.8929184930311749
  9
$LIMMIN
 10
5781.0180613411412196
 20
-52104.892581668755156
  9
$LIMMAX
 10
5790.2622703928336705
 20
-52092.8929184930311749
  0
ENDSEC
  0
SECTION
  2
TABLES
  0
TABLE
  2
VPORT
  5
8
100
AcDbSymbolTable
 70
1
  0
VPORT
  5
30
100
AcDbSymbolTableRecord
100
AcDbViewportTableRecord
  2
*Active
 70
0
 10
0.0
 20
0.0
 11
1.0
 21
1.0
 12
5785.640165866987445
 22
-52098.8927500808931654
 13
0.0
 23
0.0
 14
10.0
 24
10.0
 15
10.0
 25
10.0
 16
0.0
 26
0.0
 36
1.0
 17
0.0
 27
0.0
 37
0.0
 40
9.2442090516924509
 41
1.2980735408106177
 42
50.0
 43
0.0
 44
0.0
 50
0.0
 51
0.0
 71
0
 72
100
 73
1
 74
3
 75
0
 76
0
 77
0
 78
0
281
0
 65
1
110
0.0
120
0.0
130
0.0
111
1.0
121
0.0
131
0.0
112
0.0
122
1.0
132
0.0
 79
0
146
0.0
  0
ENDTAB
  0
TABLE
  2
LTYPE
  5
5
100
AcDbSymbolTable
 70
3
  0
LTYPE
  5
14
100
AcDbSymbolTableRecord
100
AcDbLinetypeTableRecord
  2
BYBLOCK
 70
0
  3

 72
65
 73
0
 40
0.0
  0
LTYPE
  5
15
100
AcDbSymbolTableRecord
100
AcDbLinetypeTableRecord
  2
BYLAYER
 70
0
  3

 72
65
 73
0
 40
0.0
  0
LTYPE
  5
16
100
AcDbSymbolTableRecord
100
AcDbLinetypeTableRecord
  2
CONTINUOUS
 70
0
  3
Solid line
 72
65
 73
0
 40
0.0
  0
ENDTAB
  0
TABLE
  2
LAYER
  5
2
100
AcDbSymbolTable
 70
5
  0
LAYER
  5
10
100
AcDbSymbolTableRecord
100
AcDbLayerTableRecord
  2
0
 70
0
 62
0
  6
CONTINUOUS
370
100
390
F
  0
LAYER
  5
31
100
AcDbSymbolTableRecord
100
AcDbLayerTableRecord
  2
Survey
 70
0
 62
5
  6
CONTINUOUS
370
100
390
F
  0
LAYER
  5
32
100
AcDbSymbolTableRecord
100
AcDbLayerTableRecord
  2
Name
 70
0
 62
3
  6
CONTINUOUS
370
100
390
F
  0
LAYER
  5
33
100
AcDbSymbolTableRecord
100
AcDbLayerTableRecord
  2
Height
 70
0
 62
5
  6
CONTINUOUS
370
100
390
F
  0
LAYER
  5
34
100
AcDbSymbolTableRecord
100
AcDbLayerTableRecord
  2
Code
 70
0
 62
2
  6
CONTINUOUS
370
100
390
F
  0
ENDTAB
  0
TABLE
  2
STYLE
  5
3
100
AcDbSymbolTable
 70
1
  0
STYLE
  5
35
100
AcDbSymbolTableRecord
100
AcDbTextStyleTableRecord
  2
standard
 70
0
 40
2.5
 41
1.0
 50
0.0
 71
0
 42
2.5
  3

  4

1001
ACAD
1000
txt
1071
0
  0
ENDTAB
  0
TABLE
  2
VIEW
  5
6
100
AcDbSymbolTable
 70
0
  0
ENDTAB
  0
TABLE
  2
UCS
  5
7
100
AcDbSymbolTable
 70
0
  0
ENDTAB
  0
TABLE
  2
APPID
  5
9
100
AcDbSymbolTable
 70
1
  0
APPID
  5
12
100
AcDbSymbolTableRecord
100
AcDbRegAppTableRecord
  2
ACAD
 70
0
  0
ENDTAB
  0
TABLE
  2
DIMSTYLE
  5
A
100
AcDbSymbolTable
 70
1
100
AcDbDimStyleTable
 71
0
  0
DIMSTYLE
105
27
100
AcDbSymbolTableRecord
100
AcDbDimStyleTableRecord
  2
Standard
 41
1.0
 42
1.0
 43
3.75
 44
1.0
 70
0
 73
0
 74
0
 77
1
 78
8
140
1.0
141
2.5
143
0.03937007874016
147
1.0
171
3
172
1
271
2
272
2
274
3
278
44
283
0
284
8
340
0
  0
ENDTAB
  0
TABLE
  2
BLOCK_RECORD
  5
1
100
AcDbSymbolTable
 70
1
  0
BLOCK_RECORD
  5
1F
100
AcDbSymbolTableRecord
100
AcDbBlockTableRecord
  2
*Model_Space
340
22
  0
BLOCK_RECORD
  5
1B
100
AcDbSymbolTableRecord
100
AcDbBlockTableRecord
  2
*Paper_Space
340
1E
  0
BLOCK_RECORD
  5
23
100
AcDbSymbolTableRecord
100
AcDbBlockTableRecord
  2
*Paper_Space0
340
26
  0
ENDTAB
  0
ENDSEC
  0
SECTION
  2
BLOCKS
  0
BLOCK
  5
20
100
AcDbEntity
  8
0
100
AcDbBlockBegin
  2
*Model_Space
 70
0
 10
0.0
 20
0.0
 30
0.0
  3
*Model_Space
  1

  0
ENDBLK
  5
21
100
AcDbEntity
  8
0
100
AcDbBlockEnd
  0
BLOCK
  5
1C
100
AcDbEntity
 67
1
  8
0
100
AcDbBlockBegin
  2
*Paper_Space
 70
0
 10
0.0
 20
0.0
 30
0.0
  3
*Paper_Space
  1

  0
ENDBLK
  5
1D
100
AcDbEntity
 67
1
  8
0
100
AcDbBlockEnd
  0
BLOCK
  5
24
100
AcDbEntity
  8
0
100
AcDbBlockBegin
  2
*Paper_Space0
 70
0
 10
0.0
 20
0.0
 30
0.0
  3
*Paper_Space0
  1

  0
ENDBLK
  5
25
100
AcDbEntity
  8
0
100
AcDbBlockEnd
  0
ENDSEC
  0
SECTION
  2
ENTITIES
  0
POINT
  5
36
100
AcDbEntity
  8
Survey
 62
256
370
-1
 48
1.0
  6
BYLAYER
100
AcDbPoint
 10
5781.7547960442443582
 20
-52095.7648282653171918
 30
32.3611000000000004
  0
MTEXT
  5
37
100
AcDbEntity
  8
Name
 62
256
370
-1
 48
1.0
  6
BYLAYER
100
AcDbMText
 10
5781.7547960442443582
 20
-52095.7648282653171918
 30
32.3611000000000004
 40
0.3
 41
1.7999999999999998
 71
7
 72
0
  1
 GCP 1
  7
standard
 50
0.0
 73
1
 44
1.0
  0
MTEXT
  5
38
100
AcDbEntity
  8
Height
 62
256
370
-1
 48
1.0
  6
BYLAYER
100
AcDbMText
 10
5781.7547960442443582
 20
-52095.7648282653171918
 30
32.3611000000000004
 40
0.3
 41
1.6800000000000002
 71
1
 72
0
  1
 32.361
  7
standard
 50
0.0
 73
1
 44
1.0
  0
POINT
  5
39
100
AcDbEntity
  8
Survey
 62
256
370
-1
 48
1.0
  6
BYLAYER
100
AcDbPoint
 10
5789.5418695465359633
 20
-52096.1120833066379419
 30
33.2220999999999975
  0
MTEXT
  5
3A
100
AcDbEntity
  8
Name
 62
256
370
-1
 48
1.0
  6
BYLAYER
100
AcDbMText
 10
5789.5418695465359633
 20
-52096.1120833066379419
 30
33.2220999999999975
 40
0.3
 41
1.7999999999999998
 71
7
 72
0
  1
 GCP 4
  7
standard
 50
0.0
 73
1
 44
1.0
  0
MTEXT
  5
3B
100
AcDbEntity
  8
Height
 62
256
370
-1
 48
1.0
  6
BYLAYER
100
AcDbMText
 10
5789.5418695465359633
 20
-52096.1120833066379419
 30
33.2220999999999975
 40
0.3
 41
1.6800000000000002
 71
1
 72
0
  1
 33.222
  7
standard
 50
0.0
 73
1
 44
1.0
  0
POINT
  5
3C
100
AcDbEntity
  8
Survey
 62
256
370
-1
 48
1.0
  6
BYLAYER
100
AcDbPoint
 10
5788.8915200857209129
 20
-52098.5760990652634064
 30
32.33202
  0
MTEXT
  5
3D
100
AcDbEntity
  8
Name
 62
256
370
-1
 48
1.0
  6
BYLAYER
100
AcDbMText
 10
5788.8915200857209129
 20
-52098.5760990652634064
 30
32.33202
 40
0.3
 41
1.7999999999999998
 71
7
 72
0
  1
 GCP 5
  7
standard
 50
0.0
 73
1
 44
1.0
  0
MTEXT
  5
3E
100
AcDbEntity
  8
Height
 62
256
370
-1
 48
1.0
  6
BYLAYER
100
AcDbMText
 10
5788.8915200857209129
 20
-52098.5760990652634064
 30
32.33202
 40
0.3
 41
1.6800000000000002
 71
1
 72
0
  1
 32.332
  7
standard
 50
0.0
 73
1
 44
1.0
  0
POINT
  5
3F
100
AcDbEntity
  8
Survey
 62
256
370
-1
 48
1.0
  6
BYLAYER
100
AcDbPoint
 10
5789.6425395859278069
 20
-52100.7244076421557111
 30
32.5686999999999998
  0
MTEXT
  5
40
100
AcDbEntity
  8
Name
 62
256
370
-1
 48
1.0
  6
BYLAYER
100
AcDbMText
 10
5789.6425395859278069
 20
-52100.7244076421557111
 30
32.5686999999999998
 40
0.3
 41
1.7999999999999998
 71
7
 72
0
  1
 GCP 6
  7
standard
 50
0.0
 73
1
 44
1.0
  0
MTEXT
  5
41
100
AcDbEntity
  8
Height
 62
256
370
-1
 48
1.0
  6
BYLAYER
100
AcDbMText
 10
5789.6425395859278069
 20
-52100.7244076421557111
 30
32.5686999999999998
 40
0.3
 41
1.6800000000000002
 71
1
 72
0
  1
 32.569
  7
standard
 50
0.0
 73
1
 44
1.0
  0
POINT
  5
42
100
AcDbEntity
  8
Survey
 62
256
370
-1
 48
1.0
  6
BYLAYER
100
AcDbPoint
 10
5790.2622703928336705
 20
-52100.9965163706947351
 30
33.0553599999999932
  0
MTEXT
  5
43
100
AcDbEntity
  8
Name
 62
256
370
-1
 48
1.0
  6
BYLAYER
100
AcDbMText
 10
5790.2622703928336705
 20
-52100.9965163706947351
 30
33.0553599999999932
 40
0.3
 41
0.8999999999999999
 71
7
 72
0
  1
 NA
  7
standard
 50
0.0
 73
1
 44
1.0
  0
MTEXT
  5
44
100
AcDbEntity
  8
Height
 62
256
370
-1
 48
1.0
  6
BYLAYER
100
AcDbMText
 10
5790.2622703928336705
 20
-52100.9965163706947351
 30
33.0553599999999932
 40
0.3
 41
1.6800000000000002
 71
1
 72
0
  1
 33.055
  7
standard
 50
0.0
 73
1
 44
1.0
  0
POINT
  5
45
100
AcDbEntity
  8
Survey
 62
256
370
-1
 48
1.0
  6
BYLAYER
100
AcDbPoint
 10
5789.9470588331041654
 20
-52101.4340923105410184
 30
32.5395399999999952
  0
MTEXT
  5
46
100
AcDbEntity
  8
Name
 62
256
370
-1
 48
1.0
  6
BYLAYER
100
AcDbMText
 10
5789.9470588331041654
 20
-52101.4340923105410184
 30
32.5395399999999952
 40
0.3
 41
0.8999999999999999
 71
7
 72
0
  1
 NC
  7
standard
 50
0.0
 73
1
 44
1.0
  0
MTEXT
  5
47
100
AcDbEntity
  8
Height
 62
256
370
-1
 48
1.0
  6
BYLAYER
100
AcDbMText
 10
5789.9470588331041654
 20
-52101.4340923105410184
 30
32.5395399999999952
 40
0.3
 41
1.4399999999999999
 71
1
 72
0
  1
 32.54
  7
standard
 50
0.0
 73
1
 44
1.0
  0
POINT
  5
48
100
AcDbEntity
  8
Survey
 62
256
370
-1
 48
1.0
  6
BYLAYER
100
AcDbPoint
 10
5789.3964494125448255
 20
-52102.6189596298281685
 30
31.9492800000000052
  0
MTEXT
  5
49
100
AcDbEntity
  8
Name
 62
256
370
-1
 48
1.0
  6
BYLAYER
100
AcDbMText
 10
5789.3964494125448255
 20
-52102.6189596298281685
 30
31.9492800000000052
 40
0.3
 41
0.8999999999999999
 71
7
 72
0
  1
 GG
  7
standard
 50
0.0
 73
1
 44
1.0
  0
MTEXT
  5
4A
100
AcDbEntity
  8
Height
 62
256
370
-1
 48
1.0
  6
BYLAYER
100
AcDbMText
 10
5789.3964494125448255
 20
-52102.6189596298281685
 30
31.9492800000000052
 40
0.3
 41
1.6800000000000002
 71
1
 72
0
  1
 31.949
  7
standard
 50
0.0
 73
1
 44
1.0
  0
POINT
  5
4B
100
AcDbEntity
  8
Survey
 62
256
370
-1
 48
1.0
  6
BYLAYER
100
AcDbPoint
 10
5787.2420181179059
 20
-52103.2679717926584999
 30
31.8463399999999979
  0
MTEXT
  5
4C
100
AcDbEntity
  8
Name
 62
256
370
-1
 48
1.0
  6
BYLAYER
100
AcDbMText
 10
5787.2420181179059
 20
-52103.2679717926584999
 30
31.8463399999999979
 40
0.3
 41
1.7999999999999998
 71
7
 72
0
  1
 DEPTH
  7
standard
 50
0.0
 73
1
 44
1.0
  0
MTEXT
  5
4D
100
AcDbEntity
  8
Height
 62
256
370
-1
 48
1.0
  6
BYLAYER
100
AcDbMText
 10
5787.2420181179059
 20
-52103.2679717926584999
 30
31.8463399999999979
 40
0.3
 41
1.6800000000000002
 71
1
 72
0
  1
 31.846
  7
standard
 50
0.0
 73
1
 44
1.0
  0
POINT
  5
4E
100
AcDbEntity
  8
Survey
 62
256
370
-1
 48
1.0
  6
BYLAYER
100
AcDbPoint
 10
5784.3549738213641831
 20
-52103.9588464364715037
 30
31.9423200000000023
  0
MTEXT
  5
4F
100
AcDbEntity
  8
Name
 62
256
370
-1
 48
1.0
  6
BYLAYER
100
AcDbMText
 10
5784.3549738213641831
 20
-52103.9588464364715037
 30
31.9423200000000023
 40
0.3
 41
0.8999999999999999
 71
7
 72
0
  1
 GG
  7
standard
 50
0.0
 73
1
 44
1.0
  0
MTEXT
  5
50
100
AcDbEntity
  8
Height
 62
256
370
-1
 48
1.0
  6
BYLAYER
100
AcDbMText
 10
5784.3549738213641831
 20
-52103.9588464364715037
 30
31.9423200000000023
 40
0.3
 41
1.6800000000000002
 71
1
 72
0
  1
 31.942
  7
standard
 50
0.0
 73
1
 44
1.0
  0
POINT
  5
51
100
AcDbEntity
  8
Survey
 62
256
370
-1
 48
1.0
  6
BYLAYER
100
AcDbPoint
 10
5783.7448778596108241
 20
-52104.0012141050683567
 30
32.3090000000000046
  0
MTEXT
  5
52
100
AcDbEntity
  8
Name
 62
256
370
-1
 48
1.0
  6
BYLAYER
100
AcDbMText
 10
5783.7448778596108241
 20
-52104.0012141050683567
 30
32.3090000000000046
 40
0.3
 41
0.8999999999999999
 71
7
 72
0
  1
 NC
  7
standard
 50
0.0
 73
1
 44
1.0
  0
MTEXT
  5
53
100
AcDbEntity
  8
Height
 62
256
370
-1
 48
1.0
  6
BYLAYER
100
AcDbMText
 10
5783.7448778596108241
 20
-52104.0012141050683567
 30
32.3090000000000046
 40
0.3
 41
1.6800000000000002
 71
1
 72
0
  1
 32.309
  7
standard
 50
0.0
 73
1
 44
1.0
  0
POINT
  5
54
100
AcDbEntity
  8
Survey
 62
256
370
-1
 48
1.0
  6
BYLAYER
100
AcDbPoint
 10
5783.4066264953244172
 20
-52104.3794129283851362
 30
33.1084200000000095
  0
MTEXT
  5
55
100
AcDbEntity
  8
Name
 62
256
370
-1
 48
1.0
  6
BYLAYER
100
AcDbMText
 10
5783.4066264953244172
 20
-52104.3794129283851362
 30
33.1084200000000095
 40
0.3
 41
0.8999999999999999
 71
7
 72
0
  1
 NA
  7
standard
 50
0.0
 73
1
 44
1.0
  0
MTEXT
  5
56
100
AcDbEntity
  8
Height
 62
256
370
-1
 48
1.0
  6
BYLAYER
100
AcDbMText
 10
5783.4066264953244172
 20
-52104.3794129283851362
 30
33.1084200000000095
 40
0.3
 41
1.6800000000000002
 71
1
 72
0
  1
 33.108
  7
standard
 50
0.0
 73
1
 44
1.0
  0
POINT
  5
57
100
AcDbEntity
  8
Survey
 62
256
370
-1
 48
1.0
  6
BYLAYER
100
AcDbPoint
 10
5782.6908263029781665
 20
-52102.0194224864098942
 30
33.1501200000000011
  0
MTEXT
  5
58
100
AcDbEntity
  8
Name
 62
256
370
-1
 48
1.0
  6
BYLAYER
100
AcDbMText
 10
5782.6908263029781665
 20
-52102.0194224864098942
 30
33.1501200000000011
 40
0.3
 41
0.8999999999999999
 71
7
 72
0
  1
 NA
  7
standard
 50
0.0
 73
1
 44
1.0
  0
MTEXT
  5
59
100
AcDbEntity
  8
Height
 62
256
370
-1
 48
1.0
  6
BYLAYER
100
AcDbMText
 10
5782.6908263029781665
 20
-52102.0194224864098942
 30
33.1501200000000011
 40
0.3
 41
1.4399999999999999
 71
1
 72
0
  1
 33.15
  7
standard
 50
0.0
 73
1
 44
1.0
  0
POINT
  5
5A
100
AcDbEntity
  8
Survey
 62
256
370
-1
 48
1.0
  6
BYLAYER
100
AcDbPoint
 10
5783.3719364252492596
 20
-52101.7711565929057542
 30
32.2829599999999957
  0
MTEXT
  5
5B
100
AcDbEntity
  8
Name
 62
256
370
-1
 48
1.0
  6
BYLAYER
100
AcDbMText
 10
5783.3719364252492596
 20
-52101.7711565929057542
 30
32.2829599999999957
 40
0.3
 41
0.8999999999999999
 71
7
 72
0
  1
 NC
  7
standard
 50
0.0
 73
1
 44
1.0
  0
MTEXT
  5
5C
100
AcDbEntity
  8
Height
 62
256
370
-1
 48
1.0
  6
BYLAYER
100
AcDbMText
 10
5783.3719364252492596
 20
-52101.7711565929057542
 30
32.2829599999999957
 40
0.3
 41
1.6800000000000002
 71
1
 72
0
  1
 32.283
  7
standard
 50
0.0
 73
1
 44
1.0
  0
POINT
  5
5D
100
AcDbEntity
  8
Survey
 62
256
370
-1
 48
1.0
  6
BYLAYER
100
AcDbPoint
 10
5783.6229826349317591
 20
-52101.8076980528712738
 30
31.9020999999999972
  0
MTEXT
  5
5E
100
AcDbEntity
  8
Name
 62
256
370
-1
 48
1.0
  6
BYLAYER
100
AcDbMText
 10
5783.6229826349317591
 20
-52101.8076980528712738
 30
31.9020999999999972
 40
0.3
 41
0.8999999999999999
 71
7
 72
0
  1
 GG
  7
standard
 50
0.0
 73
1
 44
1.0
  0
MTEXT
  5
5F
100
AcDbEntity
  8
Height
 62
256
370
-1
 48
1.0
  6
BYLAYER
100
AcDbMText
 10
5783.6229826349317591
 20
-52101.8076980528712738
 30
31.9020999999999972
 40
0.3
 41
1.6800000000000002
 71
1
 72
0
  1
 31.902
  7
standard
 50
0.0
 73
1
 44
1.0
  0
POINT
  5
60
100
AcDbEntity
  8
Survey
 62
256
370
-1
 48
1.0
  6
BYLAYER
100
AcDbPoint
 10
5781.5118797699306015
 20
-52099.1538841424844577
 30
33.2657999999999987
  0
MTEXT
  5
61
100
AcDbEntity
  8
Name
 62
256
370
-1
 48
1.0
  6
BYLAYER
100
AcDbMText
 10
5781.5118797699306015
 20
-52099.1538841424844577
 30
33.2657999999999987
 40
0.3
 41
0.8999999999999999
 71
7
 72
0
  1
 NA
  7
standard
 50
0.0
 73
1
 44
1.0
  0
MTEXT
  5
62
100
AcDbEntity
  8
Height
 62
256
370
-1
 48
1.0
  6
BYLAYER
100
AcDbMText
 10
5781.5118797699306015
 20
-52099.1538841424844577
 30
33.2657999999999987
 40
0.3
 41
1.6800000000000002
 71
1
 72
0
  1
 33.266
  7
standard
 50
0.0
 73
1
 44
1.0
  0
POINT
  5
63
100
AcDbEntity
  8
Survey
 62
256
370
-1
 48
1.0
  6
BYLAYER
100
AcDbPoint
 10
5782.2017753491400072
 20
-52098.8436213691675221
 30
32.1092000000000013
  0
MTEXT
  5
64
100
AcDbEntity
  8
Name
 62
256
370
-1
 48
1.0
  6
BYLAYER
100
AcDbMText
 10
5782.2017753491400072
 20
-52098.8436213691675221
 30
32.1092000000000013
 40
0.3
 41
0.8999999999999999
 71
7
 72
0
  1
 NC
  7
standard
 50
0.0
 73
1
 44
1.0
  0
MTEXT
  5
65
100
AcDbEntity
  8
Height
 62
256
370
-1
 48
1.0
  6
BYLAYER
100
AcDbMText
 10
5782.2017753491400072
 20
-52098.8436213691675221
 30
32.1092000000000013
 40
0.3
 41
1.6800000000000002
 71
1
 72
0
  1
 32.109
  7
standard
 50
0.0
 73
1
 44
1.0
  0
POINT
  5
66
100
AcDbEntity
  8
Survey
 62
256
370
-1
 48
1.0
  6
BYLAYER
100
AcDbPoint
 10
5782.2386378928113118
 20
-52098.7585116805785219
 30
31.898579999999999
  0
MTEXT
  5
67
100
AcDbEntity
  8
Name
 62
256
370
-1
 48
1.0
  6
BYLAYER
100
AcDbMText
 10
5782.2386378928113118
 20
-52098.7585116805785219
 30
31.898579999999999
 40
0.3
 41
0.8999999999999999
 71
7
 72
0
  1
 GG
  7
standard
 50
0.0
 73
1
 44
1.0
  0
MTEXT
  5
68
100
AcDbEntity
  8
Height
 62
256
370
-1
 48
1.0
  6
BYLAYER
100
AcDbMText
 10
5782.2386378928113118
 20
-52098.7585116805785219
 30
31.898579999999999
 40
0.3
 41
1.6800000000000002
 71
1
 72
0
  1
 31.899
  7
standard
 50
0.0
 73
1
 44
1.0
  0
POINT
  5
69
100
AcDbEntity
  8
Survey
 62
256
370
-1
 48
1.0
  6
BYLAYER
100
AcDbPoint
 10
5785.4318813846739431
 20
-52098.4811261603681487
 30
31.8168400000000027
  0
MTEXT
  5
6A
100
AcDbEntity
  8
Name
 62
256
370
-1
 48
1.0
  6
BYLAYER
100
AcDbMText
 10
5785.4318813846739431
 20
-52098.4811261603681487
 30
31.8168400000000027
 40
0.3
 41
1.7999999999999998
 71
7
 72
0
  1
 DEPTH
  7
standard
 50
0.0
 73
1
 44
1.0
  0
MTEXT
  5
6B
100
AcDbEntity
  8
Height
 62
256
370
-1
 48
1.0
  6
BYLAYER
100
AcDbMText
 10
5785.4318813846739431
 20
-52098.4811261603681487
 30
31.8168400000000027
 40
0.3
 41
1.6800000000000002
 71
1
 72
0
  1
 31.817
  7
standard
 50
0.0
 73
1
 44
1.0
  0
POINT
  5
6C
100
AcDbEntity
  8
Survey
 62
256
370
-1
 48
1.0
  6
BYLAYER
100
AcDbPoint
 10
5786.0558589296761056
 20
-52101.4710007280809805
 30
31.7834400000000024
  0
MTEXT
  5
6D
100
AcDbEntity
  8
Name
 62
256
370
-1
 48
1.0
  6
BYLAYER
100
AcDbMText
 10
5786.0558589296761056
 20
-52101.4710007280809805
 30
31.7834400000000024
 40
0.3
 41
1.7999999999999998
 71
7
 72
0
  1
 DEPTH
  7
standard
 50
0.0
 73
1
 44
1.0
  0
MTEXT
  5
6E
100
AcDbEntity
  8
Height
 62
256
370
-1
 48
1.0
  6
BYLAYER
100
AcDbMText
 10
5786.0558589296761056
 20
-52101.4710007280809805
 30
31.7834400000000024
 40
0.3
 41
1.6800000000000002
 71
1
 72
0
  1
 31.783
  7
standard
 50
0.0
 73
1
 44
1.0
  0
POINT
  5
6F
100
AcDbEntity
  8
Survey
 62
256
370
-1
 48
1.0
  6
BYLAYER
100
AcDbPoint
 10
5785.4009307632395576
 20
-52097.4702090714854421
 30
31.8361800000000024
  0
MTEXT
  5
70
100
AcDbEntity
  8
Name
 62
256
370
-1
 48
1.0
  6
BYLAYER
100
AcDbMText
 10
5785.4009307632395576
 20
-52097.4702090714854421
 30
31.8361800000000024
 40
0.3
 41
1.7999999999999998
 71
7
 72
0
  1
 DEPTH
  7
standard
 50
0.0
 73
1
 44
1.0
  0
MTEXT
  5
71
100
AcDbEntity
  8
Height
 62
256
370
-1
 48
1.0
  6
BYLAYER
100
AcDbMText
 10
5785.4009307632395576
 20
-52097.4702090714854421
 30
31.8361800000000024
 40
0.3
 41
1.6800000000000002
 71
1
 72
0
  1
 31.836
  7
standard
 50
0.0
 73
1
 44
1.0
  0
POINT
  5
72
100
AcDbEntity
  8
Survey
 62
256
370
-1
 48
1.0
  6
BYLAYER
100
AcDbPoint
 10
5784.2635618074173181
 20
-52092.8929184930311749
 30
31.8789000000000051
  0
MTEXT
  5
73
100
AcDbEntity
  8
Name
 62
256
370
-1
 48
1.0
  6
BYLAYER
100
AcDbMText
 10
5784.2635618074173181
 20
-52092.8929184930311749
 30
31.8789000000000051
 40
0.3
 41
1.7999999999999998
 71
7
 72
0
  1
 DEPTH
  7
standard
 50
0.0
 73
1
 44
1.0
  0
MTEXT
  5
74
100
AcDbEntity
  8
Height
 62
256
370
-1
 48
1.0
  6
BYLAYER
100
AcDbMText
 10
5784.2635618074173181
 20
-52092.8929184930311749
 30
31.8789000000000051
 40
0.3
 41
1.6800000000000002
 71
1
 72
0
  1
 31.879
  7
standard
 50
0.0
 73
1
 44
1.0
  0
POINT
  5
75
100
AcDbEntity
  8
Survey
 62
256
370
-1
 48
1.0
  6
BYLAYER
100
AcDbPoint
 10
5781.0180613411412196
 20
-52093.2433991663419874
 30
31.97804
  0
MTEXT
  5
76
100
AcDbEntity
  8
Name
 62
256
370
-1
 48
1.0
  6
BYLAYER
100
AcDbMText
 10
5781.0180613411412196
 20
-52093.2433991663419874
 30
31.97804
 40
0.3
 41
0.8999999999999999
 71
7
 72
0
  1
 GG
  7
standard
 50
0.0
 73
1
 44
1.0
  0
MTEXT
  5
77
100
AcDbEntity
  8
Height
 62
256
370
-1
 48
1.0
  6
BYLAYER
100
AcDbMText
 10
5781.0180613411412196
 20
-52093.2433991663419874
 30
31.97804
 40
0.3
 41
1.6800000000000002
 71
1
 72
0
  1
 31.978
  7
standard
 50
0.0
 73
1
 44
1.0
  0
POINT
  5
78
100
AcDbEntity
  8
Survey
 62
256
370
-1
 48
1.0
  6
BYLAYER
100
AcDbPoint
 10
5787.3572556737799459
 20
-52093.114311840996379
 30
32.0707000000000022
  0
MTEXT
  5
79
100
AcDbEntity
  8
Name
 62
256
370
-1
 48
1.0
  6
BYLAYER
100
AcDbMText
 10
5787.3572556737799459
 20
-52093.114311840996379
 30
32.0707000000000022
 40
0.3
 41
0.8999999999999999
 71
7
 72
0
  1
 GG
  7
standard
 50
0.0
 73
1
 44
1.0
  0
MTEXT
  5
7A
100
AcDbEntity
  8
Height
 62
256
370
-1
 48
1.0
  6
BYLAYER
100
AcDbMText
 10
5787.3572556737799459
 20
-52093.114311840996379
 30
32.0707000000000022
 40
0.3
 41
1.6800000000000002
 71
1
 72
0
  1
 32.071
  7
standard
 50
0.0
 73
1
 44
1.0
  0
POINT
  5
7B
100
AcDbEntity
  8
Survey
 62
256
370
-1
 48
1.0
  6
BYLAYER
100
AcDbPoint
 10
5783.4013680817824934
 20
-52099.452529171925562
 30
31.9068200000000033
  0
MTEXT
  5
7C
100
AcDbEntity
  8
Name
 62
256
370
-1
 48
1.0
  6
BYLAYER
100
AcDbMText
 10
5783.4013680817824934
 20
-52099.452529171925562
 30
31.9068200000000033
 40
0.3
 41
1.7999999999999998
 71
7
 72
0
  1
 GCP 2
  7
standard
 50
0.0
 73
1
 44
1.0
  0
MTEXT
  5
7D
100
AcDbEntity
  8
Height
 62
256
370
-1
 48
1.0
  6
BYLAYER
100
AcDbMText
 10
5783.4013680817824934
 20
-52099.452529171925562
 30
31.9068200000000033
 40
0.3
 41
1.6800000000000002
 71
1
 72
0
  1
 31.907
  7
standard
 50
0.0
 73
1
 44
1.0
  0
POINT
  5
7E
100
AcDbEntity
  8
Survey
 62
256
370
-1
 48
1.0
  6
BYLAYER
100
AcDbPoint
 10
5784.8023195579080493
 20
-52104.892581668755156
 30
32.1512200000000021
  0
MTEXT
  5
7F
100
AcDbEntity
  8
Name
 62
256
370
-1
 48
1.0
  6
BYLAYER
100
AcDbMText
 10
5784.8023195579080493
 20
-52104.892581668755156
 30
32.1512200000000021
 40
0.3
 41
1.7999999999999998
 71
7
 72
0
  1
 GCP 3
  7
standard
 50
0.0
 73
1
 44
1.0
  0
MTEXT
  5
80
100
AcDbEntity
  8
Height
 62
256
370
-1
 48
1.0
  6
BYLAYER
100
AcDbMText
 10
5784.8023195579080493
 20
-52104.892581668755156
 30
32.1512200000000021
 40
0.3
 41
1.6800000000000002
 71
1
 72
0
  1
 32.151
  7
standard
 50
0.0
 73
1
 44
1.0
  0
POINT
  5
81
100
AcDbEntity
  8
Survey
 62
256
370
-1
 48
1.0
  6
BYLAYER
100
AcDbPoint
 10
5787.531446197312107
 20
-52093.1538456481866888
 30
32.1214200000000005
  0
MTEXT
  5
82
100
AcDbEntity
  8
Name
 62
256
370
-1
 48
1.0
  6
BYLAYER
100
AcDbMText
 10
5787.531446197312107
 20
-52093.1538456481866888
 30
32.1214200000000005
 40
0.3
 41
0.8999999999999999
 71
7
 72
0
  1
 NC
  7
standard
 50
0.0
 73
1
 44
1.0
  0
MTEXT
  5
83
100
AcDbEntity
  8
Height
 62
256
370
-1
 48
1.0
  6
BYLAYER
100
AcDbMText
 10
5787.531446197312107
 20
-52093.1538456481866888
 30
32.1214200000000005
 40
0.3
 41
1.6800000000000002
 71
1
 72
0
  1
 32.121
  7
standard
 50
0.0
 73
1
 44
1.0
  0
POINT
  5
84
100
AcDbEntity
  8
Survey
 62
256
370
-1
 48
1.0
  6
BYLAYER
100
AcDbPoint
 10
5788.3412428120573168
 20
-52093.0429402032314101
 30
33.0722799999999992
  0
MTEXT
  5
85
100
AcDbEntity
  8
Name
 62
256
370
-1
 48
1.0
  6
BYLAYER
100
AcDbMText
 10
5788.3412428120573168
 20
-52093.0429402032314101
 30
33.0722799999999992
 40
0.3
 41
0.8999999999999999
 71
7
 72
0
  1
 NA
  7
standard
 50
0.0
 73
1
 44
1.0
  0
MTEXT
  5
86
100
AcDbEntity
  8
Height
 62
256
370
-1
 48
1.0
  6
BYLAYER
100
AcDbMText
 10
5788.3412428120573168
 20
-52093.0429402032314101
 30
33.0722799999999992
 40
0.3
 41
1.6800000000000002
 71
1
 72
0
  1
 33.072
  7
standard
 50
0.0
 73
1
 44
1.0
  0
ENDSEC
  0
SECTION
  2
OBJECTS
  0
DICTIONARY
  5
C
100
AcDbDictionary
280
0
281
1
  3
ACAD_GROUP
350
D
  3
ACAD_LAYOUT
350
1A
  3
ACAD_MLINESTYLE
350
17
  3
ACAD_PLOTSETTINGS
350
19
  3
ACAD_PLOTSTYLENAME
350
E
  3
AcDbVariableDictionary
350
87
  0
DICTIONARY
  5
D
100
AcDbDictionary
280
0
281
1
  0
ACDBDICTIONARYWDFLT
  5
E
100
AcDbDictionary
281
1
  3
Normal
350
F
100
AcDbDictionaryWithDefault
340
F
  0
ACDBPLACEHOLDER
  5
F
  0
DICTIONARY
  5
17
100
AcDbDictionary
280
0
281
1
  3
Standard
350
18
  0
MLINESTYLE
  5
18
100
AcDbMlineStyle
  2
STANDARD
 70
0
  3

 62
256
 51
90.0
 52
90.0
 71
2
 49
0.5
 62
256
  6
BYLAYER
 49
-0.5
 62
256
  6
BYLAYER
  0
DICTIONARY
  5
19
100
AcDbDictionary
280
0
281
1
  0
DICTIONARY
  5
1A
100
AcDbDictionary
281
1
  3
Layout1
350
1E
  3
Layout2
350
26
  3
Model
350
22
  0
LAYOUT
  5
1E
100
AcDbPlotSettings
  1

  2
none_device
  4

  6

 40
0.0
 41
0.0
 42
0.0
 43
0.0
 44
0.0
 45
0.0
 46
0.0
 47
0.0
 48
0.0
 49
0.0
140
0.0
141
0.0
142
1.0
143
1.0
 70
688
 72
0
 73
0
 74
5
  7

 75
16
147
1.0
148
0.0
149
0.0
100
AcDbLayout
  1
Layout1
 70
1
 71
1
 10
0.0
 20
0.0
 11
420.0
 21
297.0
 12
0.0
 22
0.0
 32
0.0
 14
100000000000000000000.0
 24
100000000000000000000.0
 34
100000000000000000000.0
 15
-100000000000000000000.0
 25
-100000000000000000000.0
 35
-100000000000000000000.0
146
0.0
 13
0.0
 23
0.0
 33
0.0
 16
1.0
 26
0.0
 36
0.0
 17
0.0
 27
1.0
 37
0.0
 76
0
330
1B
  0
LAYOUT
  5
22
100
AcDbPlotSettings
  1

  2
none_device
  4

  6

 40
0.0
 41
0.0
 42
0.0
 43
0.0
 44
0.0
 45
0.0
 46
0.0
 47
0.0
 48
0.0
 49
0.0
140
0.0
141
0.0
142
1.0
143
1.0
 70
1712
 72
0
 73
0
 74
0
  7

 75
0
147
1.0
148
0.0
149
0.0
100
AcDbLayout
  1
Model
 70
1
 71
0
 10
0.0
 20
0.0
 11
12.0
 21
9.0
 12
0.0
 22
0.0
 32
0.0
 14
0.0
 24
0.0
 34
0.0
 15
0.0
 25
0.0
 35
0.0
146
0.0
 13
0.0
 23
0.0
 33
0.0
 16
1.0
 26
0.0
 36
0.0
 17
0.0
 27
1.0
 37
0.0
 76
0
330
1F
  0
LAYOUT
  5
26
100
AcDbPlotSettings
  1

  2
none_device
  4

  6

 40
0.0
 41
0.0
 42
0.0
 43
0.0
 44
0.0
 45
0.0
 46
0.0
 47
0.0
 48
0.0
 49
0.0
140
0.0
141
0.0
142
1.0
143
1.0
 70
688
 72
0
 73
0
 74
5
  7

 75
16
147
1.0
148
0.0
149
0.0
100
AcDbLayout
  1
Layout2
 70
1
 71
2
 10
0.0
 20
0.0
 11
12.0
 21
9.0
 12
0.0
 22
0.0
 32
0.0
 14
0.0
 24
0.0
 34
0.0
 15
0.0
 25
0.0
 35
0.0
146
0.0
 13
0.0
 23
0.0
 33
0.0
 16
1.0
 26
0.0
 36
0.0
 17
0.0
 27
1.0
 37
0.0
 76
0
330
23
  0
DICTIONARY
  5
87
100
AcDbDictionary
281
1
  3
DIMASSOC
350
89
  3
HIDETEXT
350
88
  0
DICTIONARYVAR
  5
88
100
DictionaryVariables
280
0
  1
2
  0
DICTIONARYVAR
  5
89
100
DictionaryVariables
280
0
  1
1
  0
ENDSEC
  0
EOF
